# xmcd
# 
# Track frame offsets:
#     150
#     17152
#     31690
#     44527
#     69457
# 
# Disc length: 1373
# 
# Revision: 0
# Processed by: cddbd v1.5.2PL0 Copyright (c) Steve Scherf et al.
# Submitted via: fre:ac v1.0.17
# 
DISCID=38055b05
DTITLE=Aquila - Wide Open E.P.
DYEAR=2002
DGENRE=Rock
TTITLE0=Wide Open (In Loving Memory Of Ber Zanders)
TTITLE1=Radio Active
TTITLE2=Home
TTITLE3=I Still Believe
TTITLE4=Video Data
EXTD=
EXTT0=
EXTT1=
EXTT2=
EXTT3=
EXTT4=
PLAYORDER=
